<svg width="32" height="32" viewBox="0 0 32 32" fill="none" xmlns="http://www.w3.org/2000/svg">
<path d="M9.50035 4.70233C9.86691 4.20186 10.5698 4.0933 11.0702 4.45985L29.194 17.7341C29.6945 18.1006 29.803 18.8035 29.4365 19.304L23.1312 27.9128C22.7647 28.4132 22.0618 28.5218 21.5613 28.1552L3.43757 14.881C2.93709 14.5145 2.82853 13.8116 3.19509 13.3111L9.50035 4.70233Z" fill="#8D33FF"/>
<path d="M9.85973 7.05707C10.2263 6.55659 10.9292 6.44803 11.4296 6.81459L26.8348 18.0977C27.3353 18.4642 27.4438 19.1671 27.0773 19.6676L22.7632 25.5578C22.3966 26.0583 21.6937 26.1668 21.1933 25.8003L5.78808 14.5172C5.2876 14.1506 5.17904 13.4478 5.5456 12.9473L9.85973 7.05707Z" fill="#FF8833"/>
<path d="M18.5807 17.9666C17.5727 19.343 15.6398 19.6415 14.2635 18.6335C12.8872 17.6254 12.5886 15.6925 13.5967 14.3162C14.6047 12.9399 16.5376 12.6414 17.9139 13.6494C19.2902 14.6575 19.5887 16.5903 18.5807 17.9666Z" fill="#8D33FF"/>
<path d="M11.9534 12.7622C11.5868 13.2627 10.8839 13.3712 10.3835 13.0047C9.88298 12.6381 9.77442 11.9352 10.141 11.4348C10.5075 10.9343 11.2104 10.8257 11.7109 11.1923C12.2113 11.5588 12.3199 12.2617 11.9534 12.7622Z" fill="#8D33FF"/>
<path d="M22.8283 20.7268C22.4618 21.2272 21.7589 21.3358 21.2585 20.9692C20.758 20.6027 20.6494 19.8998 21.016 19.3994C21.3825 18.8989 22.0854 18.7903 22.5859 19.1569C23.0863 19.5234 23.1949 20.2263 22.8283 20.7268Z" fill="#8D33FF"/>
<path d="M23.053 26.1162C22.5948 26.7418 21.7162 26.8775 21.0906 26.4193C20.4651 25.9611 20.3294 25.0825 20.7875 24.457C21.2457 23.8314 22.1243 23.6957 22.7499 24.1539C23.3755 24.6121 23.5112 25.4906 23.053 26.1162Z" fill="#8D33FF"/>
<path d="M27.7015 19.773C27.2433 20.3986 26.3647 20.5343 25.7391 20.0761C25.1135 19.6179 24.9778 18.7393 25.436 18.1137C25.8942 17.4881 26.7728 17.3524 27.3984 17.8106C28.024 18.2688 28.1597 19.1474 27.7015 19.773Z" fill="#8D33FF"/>
<path d="M11.8421 8.15798C11.3839 8.78357 10.5053 8.91927 9.8797 8.46108C9.25411 8.00288 9.11841 7.12429 9.57661 6.4987C10.0348 5.87311 10.9134 5.73741 11.539 6.19561C12.1646 6.6538 12.3003 7.53239 11.8421 8.15798Z" fill="#8D33FF"/>
<path d="M7.19364 14.5015C6.73544 15.1271 5.85686 15.2628 5.23127 14.8046C4.60568 14.3464 4.46998 13.4678 4.92817 12.8422C5.38637 12.2166 6.26495 12.0809 6.89055 12.5391C7.51614 12.9973 7.65184 13.8759 7.19364 14.5015Z" fill="#8D33FF"/>
</svg>
